<svg
  version="1.1"
  width="1000"
  height="1000"
  xmlns="http://www.w3.org/2000/svg"
>
  <path
    d="M 499.99998,0
       C 224.41888,0 -0.00156999,224.18069 0,499.84644 0,775.51058 224.41888,999.9984 499.99998,1000
       c 275.5796,0 499.9984,-224.48942 500,-500.15356
       C 999.99998,224.17912 775.58108,0 499.99998,0
       Z

       M 373.59326,834.80239 375.01023,666.62518 250.04093,541.6175
       H 125.07164
       l 0.0409,-83.33897 208.28112,-125.00768
       v -83.33739
       h 83.31339
       l 41.65593,41.6687 83.3134,-41.6687
       V 85.405239
       c 72.0972,7.118555 138.7234,32.487041 195.1946,71.461091
       l -28.6103,9.73287
       v 41.66871
       h -41.6559
       l -41.6559,41.67027
       v 83.3374
       l 83.3118,-41.6687 124.9693,41.6687 -41.6559,83.33898 -83.3134,-41.66871
       h -83.3118
       l -83.3134,83.33741
       v 83.33897
       l 83.3134,83.33898
       h 83.3118
       l 41.6575,83.33739 -87.8667,175.79192
       c -49.7861,20.97133 -104.5349,32.55789 -162.0515,32.55789 -15.2403,0 -30.2807,-0.78744 -45.0881,-2.39383
       z

       M 458.36298,85.40997
       v 81.18451
       h -83.31181
       v -64.27639
       z"
  />
</svg>
