<!--!Font Awesome Free 6.6.0 by @fontawesome - https://fontawesome.com License - https://fontawesome.com/license/free Copyright 2024 Fonticons, Inc.-->

<svg
  version="1.1"
  width="1000"
  height="1000"
  xmlns="http://www.w3.org/2000/svg"
>
  <path
    d="M 566.66668,64.516158
       C 566.66668,28.830679 536.87496,0 500,0
       C 463.12497,0 433.33332,28.830679 433.33332,64.516158
       V 516.12911
       c 0,35.68541 29.79165,64.51609 66.66668,64.51609
       c 36.87496,0 66.66668,-28.83068 66.66668,-64.51609
       z

       M 265.62499,243.14511
       c 28.33339,-22.78225 32.08339,-63.50801 8.54172,-90.92736
       C 250.62498,124.7984 208.54168,121.16937 180.20837,143.95162
       C 70.208368,232.66128 0,366.53225 0,516.12911
       C 0,783.2661 223.95839,1000 500,1000
       c 276.04168,0 500,-216.7339 500,-483.87089
       c 0,-149.59686 -70.41661,-283.46783 -180.41661,-372.17749
       c -28.33338,-22.78225 -70.41668,-18.95159 -93.95842,8.26613
       c -23.54166,27.21772 -19.58335,68.14511 8.54172,90.92736
       c 81.04168,65.12104 132.29164,163.30646 132.29164,272.984
       c 0,195.96773 -164.16664,354.83865 -366.66664,354.83865
       c -202.50001,0 -366.66672,-158.87092 -366.66672,-354.83865
       c 0,-109.67754 51.45834,-207.86296 132.29171,-272.984
       z"
  />
</svg>
