<!-- Based on: https://www.iconfinder.com/icons/6843037 -->

<svg
  version="1.1"
  width="1000"
  height="1000"
  xmlns="http://www.w3.org/2000/svg"
>
  <path
    d="m 490.169,595.235
       a 57.758,57.758 0 0 1 6.824,-73.401
       l 30.324,-30.317
       a 57.722,57.722 0 0 1 73.401,-6.818
       l 31.07,21.253
       a 27.756,27.756 0 0 1 1.458,-4.606
       c 4.141,-8.67 23.655,-52.161 27.066,-57.724
       a 57.616,57.616 0 0 1 49.104,-27.533
       h 42.872
       a 57.394,57.394 0 0 1 9.233,0.819
       a 32.274,32.274 0 0 0 0.615,-6.121
       v -59.428
       a 32.401,32.401 0 0 0 -26.422,-31.831
       l -68.87,-12.921
       a 29.416,29.416 0 0 1 -22.448,-18.851
       a 283.245,283.245 0 0 0 -11.15,-26.956
       a 29.493,29.493 0 0 1 2.588,-29.18
       l 39.531,-57.805
       a 32.435,32.435 0 0 0 -3.826,-41.192
       L 629.514,90.604
       a 32.413,32.413 0 0 0 -41.192,-3.835
       l -57.805,39.547
       a 29.431,29.431 0 0 1 -29.182,2.567
       A 280.22,280.22 0 0 0 474.359,117.749
       A 29.474,29.474 0 0 1 455.523,95.275
       L 442.602,26.422
       A 32.361,32.361 0 0 0 410.787,0
       H 351.357
       A 32.405,32.405 0 0 0 319.525,26.416
       l -12.921,68.86
       a 29.476,29.476 0 0 1 -18.844,22.47
       a 277.448,277.448 0 0 0 -26.955,11.134
       a 29.497,29.497 0 0 1 -29.196,-2.567
       L 173.804,86.766
       a 32.435,32.435 0 0 0 -41.194,3.835
       L 90.603,132.623
       a 32.435,32.435 0 0 0 -3.841,41.192
       l 39.547,57.805
       a 29.468,29.468 0 0 1 2.569,29.188
       a 278.978,278.978 0 0 0 -11.148,26.963
       A 29.428,29.428 0 0 1 95.276,306.608
       L 26.423,319.529
       A 32.397,32.397 0 0 0 0,351.357
       v 59.428
       a 32.398,32.398 0 0 0 26.423,31.833
       l 68.838,12.913
       a 29.436,29.436 0 0 1 22.47,18.864
       a 280.205,280.205 0 0 0 11.148,26.947
       a 29.473,29.473 0 0 1 -2.569,29.19
       l -39.547,57.805
       a 32.401,32.401 0 0 0 3.841,41.185
       l 42.008,42.024
       a 32.406,32.406 0 0 0 41.194,3.823
       l 57.805,-39.539
       a 29.558,29.558 0 0 1 29.196,-2.567
       a 275.502,275.502 0 0 0 26.955,11.142
       a 29.476,29.476 0 0 1 18.849,22.47
       l 12.921,68.862
       a 32.405,32.405 0 0 0 31.831,26.414
       h 59.43
       a 32.132,32.132 0 0 0 12.383,-2.555
       a 57.238,57.238 0 0 1 -1.606,-12.775
       v -42.872
       a 57.755,57.755 0 0 1 26.481,-48.535
       A 513.306,513.306 0 0 1 514.447,630.727
       Z

       M 381.067,503.229
       A 122.158,122.158 0 1 1 503.223,381.073
       A 122.158,122.158 0 0 1 381.067,503.227
       Z"
  />
  <path
    d="m 985.664,686.663
       l -49.683,-9.313
       a 27.016,27.016 0 0 1 -20.604,-17.366
       a 193.355,193.355 0 0 0 -7.801,-18.889
       a 27.017,27.017 0 0 1 2.301,-26.815
       l 28.53,-41.705
       a 17.576,17.576 0 0 0 -2.078,-22.349
       l -30.319,-30.317
       a 17.571,17.571 0 0 0 -22.348,-2.076
       l -41.706,28.527
       a 27.006,27.006 0 0 1 -26.815,2.3
       a 195.253,195.253 0 0 0 -18.888,-7.798
       a 27.009,27.009 0 0 1 -17.366,-20.606
       l -9.323,-49.685
       a 17.579,17.579 0 0 0 -17.272,-14.336
       h -42.877
       a 17.579,17.579 0 0 0 -17.272,14.336
       l -9.323,49.685
       a 27.006,27.006 0 0 1 -17.362,20.604
       a 195.895,195.895 0 0 0 -18.891,7.8
       a 27.008,27.008 0 0 1 -26.815,-2.3
       l -41.703,-28.527
       a 17.576,17.576 0 0 0 -22.351,2.076
       l -30.317,30.312
       a 17.576,17.576 0 0 0 -2.078,22.349
       l 28.53,41.703
       a 27.014,27.014 0 0 1 2.301,26.815
       a 193.684,193.684 0 0 0 -7.8,18.89
       a 27.016,27.016 0 0 1 -20.609,17.365
       l -49.683,9.313
       a 17.581,17.581 0 0 0 -14.337,17.276
       v 42.872
       a 17.576,17.576 0 0 0 14.337,17.274
       l 49.683,9.313
       a 27.016,27.016 0 0 1 20.604,17.368
       a 193.486,193.486 0 0 0 7.8,18.887
       a 27.009,27.009 0 0 1 -2.301,26.815
       l -28.53,41.705
       a 17.576,17.576 0 0 0 2.078,22.349
       l 30.319,30.319
       a 17.574,17.574 0 0 0 22.351,2.076
       l 41.703,-28.527
       a 27.008,27.008 0 0 1 26.815,-2.3
       a 195.092,195.092 0 0 0 18.891,7.8
       a 27.011,27.011 0 0 1 17.362,20.606
       l 9.323,49.684
       a 17.574,17.574 0 0 0 17.272,14.334
       h 42.872
       a 17.574,17.574 0 0 0 17.272,-14.333
       l 9.323,-49.686
       a 27.011,27.011 0 0 1 17.362,-20.605
       a 194.585,194.585 0 0 0 18.891,-7.8
       a 27.008,27.008 0 0 1 26.815,2.3
       l 41.711,28.537
       a 17.578,17.578 0 0 0 22.351,-2.076
       l 30.319,-30.319
       a 17.573,17.573 0 0 0 2.078,-22.348
       L 909.877,836.471
       a 27.009,27.009 0 0 1 -2.298,-26.815
       a 194.27,194.27 0 0 0 7.797,-18.888
       a 27.016,27.016 0 0 1 20.603,-17.36
       l 49.683,-9.313
       A 17.573,17.573 0 0 0 1000,746.821
       v -42.872
       a 17.576,17.576 0 0 0 -14.336,-17.285
       z

       m -254.809,138.467
       a 99.754,99.754 0 1 1 99.755,-99.755
       a 99.755,99.755 0 0 1 -99.755,99.755
       z"
  />
</svg>
