<!-- Based on: https://www.iconfinder.com/icons/6843037 -->

<svg
  version="1.1"
  width="1000"
  height="1000"
  xmlns="http://www.w3.org/2000/svg"
>
  <path
    d="m 538.962,1000
       c 20.443,-0.009 37.986,-14.566 41.765,-34.657
       l 16.953,-90.352
       c 2.422,-13.523 11.837,-24.745 24.732,-29.483
       c 12.039,-4.245 23.844,-9.125 35.367,-14.619
       c 12.466,-5.733 27.034,-4.452 38.308,3.368
       l 75.845,51.878
       c 16.879,11.542 39.583,9.435 54.05,-5.016
       l 55.118,-55.138
       c 14.454,-14.458 16.571,-37.156 5.039,-54.037
       l -51.888,-75.845
       c -7.84,-11.264 -9.123,-25.84 -3.371,-38.3
       c 5.486,-11.523 10.369,-23.325 14.627,-35.356
       c 4.723,-12.909 15.951,-22.335 29.483,-24.751
       l 90.32,-16.942
       c 20.098,-3.771 34.663,-21.318 34.669,-41.768
       v -77.974
       c -0.009,-20.447 -14.571,-37.992 -34.667,-41.765
       L 874.95,402.29
       c -13.519,-2.418 -24.735,-11.836 -29.453,-24.734
       c -4.266,-12.033 -9.149,-23.838 -14.63,-35.369
       c -5.734,-12.462 -4.442,-27.029 3.396,-38.287
       l 51.867,-75.845
       c 11.524,-16.884 9.416,-39.576 -5.02,-54.048
       l -55.139,-55.129
       c -14.464,-14.451 -37.164,-16.565 -54.047,-5.032
       l -75.845,51.888
       c -11.258,7.846 -25.834,9.128 -38.289,3.368
       C 646.254,163.623 634.44,158.747 622.396,154.495
       C 609.506,149.753 600.099,138.529 597.681,125.009
       L 580.728,34.668
       C 576.976,14.568 559.431,-0.002 538.984,0
       H 461.007
       C 440.563,0.009 423.02,14.568 419.242,34.659
       l -16.953,90.35
       c -2.421,13.521 -11.833,24.743 -24.725,29.483
       c -12.037,4.246 -23.842,9.122 -35.367,14.608
       c -12.463,5.75 -27.039,4.468 -38.308,-3.368
       L 228.044,113.843
       c -16.887,-11.522 -39.581,-9.409 -54.05,5.032
       l -55.116,55.135
       c -14.443,14.467 -16.559,37.16 -5.039,54.048
       l 51.888,75.845
       c 7.841,11.263 9.123,25.838 3.371,38.297
       c -5.49,11.529 -10.372,23.338 -14.627,35.377
       c -4.728,12.89 -15.945,22.301 -29.461,24.715
       L 34.669,419.246
       C 14.573,423.016 0.008,440.56 0,461.007
       v 77.975
       c 0.006,20.449 14.571,37.996 34.669,41.768
       l 90.32,16.942
       c 13.532,2.416 24.76,11.842 29.483,24.751
       c 4.259,12.031 9.141,23.833 14.627,35.356
       c 5.752,12.46 4.469,27.036 -3.371,38.3
       l -51.888,75.845
       c -11.531,16.881 -9.415,39.58 5.039,54.037
       l 55.118,55.138
       c 14.467,14.451 37.171,16.558 54.05,5.016
       l 75.845,-51.878
       c 11.274,-7.82 25.842,-9.101 38.308,-3.368
       c 11.523,5.494 23.328,10.374 35.367,14.619
       c 12.895,4.737 22.309,15.96 24.732,29.483
       l 16.953,90.352
       c 3.779,20.091 21.322,34.648 41.765,34.657
       z

       M 499.989,660.275
       c -64.828,0.001 -123.274,-39.05 -148.081,-98.943
       C 327.101,501.44 340.817,432.503 386.658,386.663
       c 45.84,-45.84 114.778,-59.556 174.669,-34.748
       c 59.892,24.808 98.943,83.254 98.941,148.082
       c -0.003,88.517 -71.761,160.274 -160.279,160.275
       z"
  />
</svg>
